<svg width="797" height="515" viewBox="0 0 797 515" fill="none" xmlns="http://www.w3.org/2000/svg">
<g clip-path="url(#clip0)">
<path d="M483.712 514.303C619.997 514.303 730.478 482.686 730.478 443.684C730.478 404.682 619.997 373.065 483.712 373.065C347.426 373.065 236.945 404.682 236.945 443.684C236.945 482.686 347.426 514.303 483.712 514.303Z" fill="#F5F5F5"/>
<path d="M718.495 168.969C718.495 168.969 674.782 212.753 699.459 277.723C724.136 342.692 657.156 450.739 657.156 450.739C657.156 450.739 657.861 450.633 659.208 450.4C748.989 434.525 793.597 331.675 743.673 255.273C725.137 226.87 709.873 193.545 718.495 168.969Z" fill="#2091F9"/>
<path d="M718.495 168.969C718.495 168.969 693.819 222.64 718.495 266.424C743.172 310.207 722.726 433.084 657.156 450.739" stroke="#535461" stroke-width="2" stroke-miterlimit="10"/>
<path d="M796.343 346.061C796.343 346.061 746.461 338.102 741.914 382.881C737.366 427.661 646.027 433.861 646.027 433.861C646.027 433.861 646.62 434.271 647.741 435.005C723.181 484.608 795.3 466.6 784.435 400.734C780.367 376.25 780.691 351.654 796.343 346.061Z" fill="#2091F9"/>
<path opacity="0.2" d="M796.343 346.061C796.343 346.061 746.461 338.102 741.914 382.881C737.366 427.661 646.027 433.861 646.027 433.861C646.027 433.861 646.62 434.271 647.741 435.005C723.181 484.608 795.3 466.6 784.435 400.734C780.367 376.25 780.691 351.654 796.343 346.061Z" fill="#F5F5F5"/>
<path d="M796.344 346.061C796.344 346.061 757.623 354.577 760.803 389.844C763.983 425.111 703.278 467.37 646 433.847" stroke="#535461" stroke-width="2" stroke-miterlimit="10"/>
<path opacity="0.2" d="M226.245 0.359615C220.562 0.161882 214.739 0.359615 209.408 2.35107C194.906 7.76754 188.031 25.4858 190.266 40.8313C192.501 56.1768 201.695 69.5026 211.235 81.7126C220.774 93.9227 231.11 105.977 236.341 120.553C238.95 127.834 240.17 135.99 237.519 143.257C233.429 154.464 221.098 160.728 209.26 162.028C197.423 163.327 185.536 160.792 173.656 159.909C168.671 159.556 163.545 159.514 158.85 161.152C153.696 162.939 149.402 166.583 145.454 170.382C130.048 185.282 117.717 205.621 119.712 226.976C121.969 251.184 142.091 270.322 164.13 280.583C171.428 283.987 179.148 286.741 185.571 291.599C202.492 304.41 206.292 328.413 204.607 349.606C202.922 370.798 197.183 392.012 200.377 413.021C204.135 437.456 220.767 459.524 243.201 469.834C263.189 479.015 288.204 478.443 305.951 465.456C314.601 459.1 321.144 450.336 326.834 441.248C335.422 427.536 342.39 412.872 347.598 397.549C350.072 390.268 352.399 382.436 358.173 377.373C361.699 374.259 366.267 372.514 370.787 371.159C384.408 367.077 398.756 365.954 412.504 362.324C426.253 358.694 440.086 351.929 447.559 339.832C458.135 322.665 453.2 300.709 453.249 280.512C453.333 234.497 480.823 193.298 490.969 148.455C494.283 133.794 495.516 117.573 488.113 104.501C483.079 95.5822 474.598 89.2265 465.679 84.2832C446.079 73.3796 423.799 68.5281 401.879 63.8037C371.414 57.2502 334.42 56.4028 310.808 35.203C288.148 14.8647 257.147 0.359615 226.245 0.359615Z" fill="#2091F9"/>
<g opacity="0.5">
<path opacity="0.5" d="M336.754 178.468C336.752 167.376 335.018 156.354 331.614 145.799L323.154 119.522C323.154 119.084 323.154 118.653 323.154 118.223C323.415 101.38 310.308 92.9764 305.26 93.8874C300.092 94.8195 285.751 87.6164 285.751 87.6164V87.8141C284.768 86.6804 283.881 85.4662 283.1 84.1843C285.578 82.3768 287.67 80.0915 289.253 77.4626C290.836 74.8337 291.879 71.9143 292.32 68.876C292.76 65.8377 292.59 62.7418 291.82 59.7703C291.049 56.7987 289.692 54.0115 287.831 51.5725C289.381 50.406 290.563 48.8174 291.236 46.9964C292.407 43.6985 291.511 39.9345 289.607 36.9967C288.798 35.7704 287.852 34.6403 286.787 33.6282C285.175 32.0281 283.414 30.5857 281.528 29.3205C276.825 26.0579 271.657 23.2543 266.017 22.2586C265.041 22.0277 264.024 22.0277 263.048 22.2586C262.201 22.601 261.395 23.0368 260.644 23.558C256.781 25.7613 251.972 24.8079 247.516 24.5749C243.06 24.3418 237.646 25.5918 236.235 29.7795C235.798 31.0718 235.827 32.4701 235.53 33.7977C234.825 37.0462 232.322 39.5673 230.391 42.272C228.459 44.9767 227.013 48.6277 228.621 51.5654C229.171 52.5541 230.031 53.4651 230.031 54.595C230.031 55.4071 229.552 56.1345 229.326 56.9113C228.84 58.6768 229.756 60.4422 231.166 61.7204C231.774 62.3766 232.489 62.9236 233.281 63.3376C235.516 64.4816 238.09 64.8347 240.367 65.894C241.504 66.4287 242.547 67.1442 243.455 68.0126C244.568 69.1795 245.438 70.5566 246.014 72.0636C246.59 73.5707 246.861 75.1775 246.811 76.7905L247.284 76.84C247.284 76.9812 247.284 77.1154 247.284 77.2566C247.777 77.3131 248.299 77.3625 248.813 77.3837C249.554 78.5809 250.401 79.7083 251.345 80.7522C251.185 81.3549 251.004 81.9669 250.802 82.5883C249.145 83.7394 235.594 92.7787 220.182 90.6036C203.733 88.2802 194.327 160.312 194.327 160.312C193.718 164.431 193.421 168.59 193.439 172.755C193.369 183.347 195.589 197.21 207.963 195.169L214.541 193.001V228.628C214.541 228.628 215.479 238.388 212.193 244.871C208.908 251.354 222.536 249.051 222.536 249.051C222.536 249.051 223.058 249.595 224.017 250.52L223.714 251.375L224.116 251.784C222.323 257.922 219.906 263.859 216.903 269.503L217.291 269.7C217.044 270.173 216.903 270.407 216.903 270.407C216.903 270.407 221.965 272.998 228.931 276.339C234.529 295.293 246.783 339.189 242.75 347.551L242.863 347.791C243.617 349.359 247.833 358.603 246.98 367.07C246.212 374.64 256.675 409.039 260.581 421.531L258.734 421.905L265.312 445.605L263.901 460.943C263.901 460.943 255.913 482.32 274.71 478.139C293.506 473.959 288.338 456.763 288.338 456.763L288.811 421.905C288.811 421.905 286.999 420.895 284.764 419.928C283.227 415.769 279.878 405.938 279.878 399.138C279.878 390.31 273.765 352.197 273.765 352.197V352.12V351.971V351.929L273.73 351.421V351.336C273.73 350.863 273.652 350.213 273.596 349.422V349.38C272.891 339.076 270.776 304.071 272.32 285.823C273.678 284.895 275.09 284.051 276.55 283.294C281.126 294.876 292.921 326.167 292.167 339.295C291.229 355.538 291.934 342.784 292.167 340.708C292.237 340.065 292.287 340.842 292.308 342.586C292.308 342.904 292.308 343.257 292.308 343.631C292.308 344.006 292.308 344.422 292.308 344.853C292.308 345.284 292.308 345.75 292.308 346.265C292.308 346.51 292.308 346.76 292.308 347.014C292.308 347.522 292.308 348.054 292.308 348.61C292.308 348.888 292.308 349.17 292.308 349.457C292.308 350.87 292.308 352.438 292.258 354.069C292.258 354.394 292.258 354.723 292.258 355.057C292.258 356.053 292.258 357.07 292.209 358.101C292.209 359.514 292.153 360.884 292.125 362.303C292.054 365.481 291.962 368.694 291.85 371.702C291.85 372.037 291.838 372.368 291.814 372.698C291.791 373.357 291.765 374.002 291.737 374.633C291.709 375.264 291.68 375.881 291.652 376.483C291.624 377.081 291.593 377.663 291.56 378.228C291.525 378.891 291.483 379.527 291.448 380.134L288.895 379.767L288.353 385.642C287.497 394.971 288.701 404.373 291.878 413.184C292.752 415.599 293.429 417.598 293.577 418.311C294.049 420.634 293.577 437.378 293.577 437.378C293.577 437.378 296.397 459.22 309.56 455.033C315.483 453.147 318.359 447.413 319.734 441.665C321.26 435.001 320.691 428.028 318.105 421.701C316.237 416.997 314.326 410.402 315.673 405.303C318.021 396.475 318.021 383.926 318.021 383.926L316.569 383.722C316.93 383.032 317.258 382.325 317.549 381.603C317.549 381.603 317.076 349.535 321.306 345.354C323.633 343.052 323.422 337.523 322.717 333.003C321.709 326.462 321.473 319.826 322.011 313.23C322.301 309.833 322.717 306.874 323.203 305.822C324.444 303.364 325.685 278.591 320.192 266.671L321.321 266.318L321.144 265.442L321.321 265.386C322.149 267.6 323.09 269.771 324.141 271.89C324.418 272.107 324.737 272.266 325.078 272.356C340.3 269.679 340.914 255.449 340.068 247.681C340.709 247.992 341.062 248.19 341.062 248.19L342.472 227.71C343.917 224.441 344.453 220.267 344.418 215.755C344.481 199.625 336.754 178.468 336.754 178.468ZM319.974 236.679C318.93 227.76 317.485 219.363 317.485 219.363L310.435 194.265V185.127L321.617 226.933L319.974 236.679Z" fill="url(#paint0_linear)"/>
</g>
<path d="M288.274 373.771L287.752 379.513C286.929 388.635 288.096 397.828 291.172 406.454C292.011 408.82 292.666 410.769 292.807 411.468C293.259 413.742 292.807 430.09 292.807 430.09C292.807 430.09 295.529 451.438 308.227 447.349C313.938 445.513 316.687 439.899 318.041 434.285C319.509 427.774 318.958 420.969 316.462 414.78C314.657 410.183 312.81 403.721 314.114 398.756C316.384 390.127 316.384 377.867 316.384 377.867L288.274 373.771Z" fill="#5A5773"/>
<path d="M274.672 275.216C274.672 275.216 292.354 318.364 291.445 334.253C290.535 350.142 291.219 337.657 291.445 335.616C291.847 331.979 291.445 375.163 290.084 380.106C290.084 380.106 308.676 393.728 315.931 375.565C315.931 375.565 315.48 344.232 319.555 340.143C321.797 337.897 321.579 332.488 320.916 328.074C319.938 321.689 319.701 315.213 320.211 308.774C320.486 305.455 320.867 302.531 321.36 301.535C322.721 298.809 324.082 267.928 315.917 259.298L274.672 275.216Z" fill="#605D82"/>
<path opacity="0.1" d="M292.355 380.127C293.716 375.134 294.118 331.979 293.716 335.637C293.49 337.678 292.806 350.171 293.716 334.274C294.625 318.378 276.943 275.237 276.943 275.237L316.503 259.997C316.32 259.764 316.129 259.545 315.939 259.341L274.68 275.237C274.68 275.237 292.362 318.385 291.453 334.274C290.543 350.164 291.227 337.678 291.453 335.637C291.855 332 291.453 375.184 290.092 380.127C290.092 380.127 297.516 385.565 304.813 384.986C298.32 384.499 292.355 380.127 292.355 380.127Z" fill="black"/>
<path d="M259.254 415.098L265.599 438.261L264.239 453.246C264.239 453.246 256.532 474.135 274.666 470.046C292.8 465.957 287.815 449.157 287.815 449.157L288.267 415.098C288.267 415.098 281.012 411.009 277.839 411.468C274.666 411.927 259.254 415.098 259.254 415.098Z" fill="#5A5773"/>
<path d="M227.973 264.319C227.973 264.319 248.828 331.986 243.843 342.431C243.843 342.431 248.828 352.423 247.925 361.498C247.023 370.573 262.435 419.172 262.435 419.172L285.11 415.084C285.11 415.084 279.667 401.461 279.667 392.832C279.667 384.202 273.772 346.929 273.772 346.929C273.772 346.929 268.788 278.803 274.682 271.537L227.973 264.319Z" fill="#605D82"/>
<g opacity="0.1">
<path opacity="0.1" d="M272.921 277.073C269.163 292.496 273.316 349.253 273.316 349.253C273.316 349.253 279.21 386.49 279.21 395.155C279.21 401.744 282.376 411.235 283.878 415.359L285.104 415.14C285.104 415.14 279.662 401.518 279.662 392.888C279.662 384.258 273.767 346.986 273.767 346.986C273.767 346.986 269.974 295.116 272.921 277.073Z" fill="black"/>
<path opacity="0.1" d="M243.844 342.431L243.957 342.664C243.992 342.431 244.027 342.184 244.048 341.958C243.988 342.119 243.92 342.277 243.844 342.431V342.431Z" fill="black"/>
<path opacity="0.1" d="M273.653 273.768C273.859 272.985 274.205 272.245 274.675 271.586L227.973 264.319C227.973 264.319 228.248 265.202 228.72 266.777L273.653 273.768Z" fill="black"/>
</g>
<path d="M336.788 239.793C336.788 239.793 343.592 265.216 323.188 268.86C322.857 268.774 322.547 268.62 322.278 268.408C322.278 268.408 310.49 245.245 319.557 236.164L336.788 239.793Z" fill="#FAC3CA"/>
<path d="M253.361 70.8657C253.361 70.8657 254.722 89.9328 239.761 99.0215C224.8 108.11 271.488 133.081 271.488 133.081L295.974 94.0217C295.974 94.0217 285.554 95.3705 279.208 77.2214L253.361 70.8657Z" fill="#FAC3CA"/>
<path opacity="0.1" d="M243.382 100.37C243.382 100.37 266.508 148.511 287.363 103.096L319.556 262.949C319.556 262.949 269.674 278.394 269.229 285.66C268.785 292.927 218.91 267.045 218.91 267.045C218.91 267.045 229.789 247.06 227.075 234.801C224.36 222.541 243.382 100.37 243.382 100.37Z" fill="black"/>
<path d="M243.382 99.4592C243.382 99.4592 266.508 147.6 287.363 102.185L319.556 262.045C319.556 262.045 269.674 277.49 269.229 284.756C268.785 292.023 218.91 266.134 218.91 266.134C218.91 266.134 229.789 246.149 227.075 233.889C224.36 221.63 243.382 99.4592 243.382 99.4592Z" fill="#E1E7EF"/>
<path d="M266.06 427.816C266.06 427.816 260.166 414.646 273.766 414.646C287.366 414.646 285.103 426.453 285.103 426.453L266.06 427.816Z" fill="#5A5773"/>
<path d="M296.892 393.75C296.892 393.75 291.449 379.668 305.056 379.216C318.663 378.764 311.86 391.928 311.86 391.928L296.892 393.75Z" fill="#5A5773"/>
<path opacity="0.1" d="M285.328 89.2266C285.328 89.2266 299.154 96.2885 304.146 95.3563C309.138 94.4241 322.28 103.075 321.377 120.334L329.57 146.082C332.847 156.406 334.512 167.175 334.505 178.009V178.009C334.505 178.009 346.294 210.705 339.948 225.239L338.587 245.224C338.587 245.224 328.16 239.32 317.274 241.135L320.016 224.815L307.749 178.482L287.345 128.978L285.328 89.2266Z" fill="black"/>
<path d="M285.328 88.3296C285.328 88.3296 299.154 95.3915 304.146 94.4593C309.138 93.5271 322.28 102.178 321.377 119.437L329.57 145.185C332.847 155.509 334.512 166.278 334.505 177.112V177.112C334.505 177.112 346.294 209.808 339.948 224.342L338.587 244.327C338.587 244.327 328.16 238.423 317.274 240.238L319.995 223.89L307.749 177.571L287.366 128.067L285.328 88.3296Z" fill="#67647E"/>
<path opacity="0.1" d="M308.228 143.511V194.83L315.032 219.356C315.032 219.356 319.565 246.149 318.204 254.327C316.844 262.504 295.079 264.319 289.185 257.504C283.291 250.69 286.463 192.535 286.463 192.535L285.328 107.404L286.238 104.678L308.228 143.511Z" fill="black"/>
<path d="M309.158 141.245V192.563L315.961 217.089C315.961 217.089 320.495 243.882 319.134 252.06C317.773 260.238 296.009 262.052 290.114 255.238C284.22 248.423 287.393 190.268 287.393 190.268L286.258 105.116L309.158 141.245Z" fill="#67647E"/>
<path opacity="0.1" d="M217.77 183.934L232.279 229.13L225.476 248.43C225.476 248.43 257.668 282.49 278.072 266.141C278.072 266.141 280.342 196.652 275.802 180.304C271.261 163.956 249.504 108.979 249.504 108.979L244.998 94.4666L220.97 108.089L217.77 183.934Z" fill="black"/>
<path d="M216.633 181.66V226.15C216.633 226.15 217.543 235.69 214.363 242.046C211.183 248.402 224.339 246.135 224.339 246.135C224.339 246.135 256.532 280.194 276.936 263.846C276.936 263.846 279.206 194.357 274.666 178.009C270.125 161.66 248.367 106.684 248.367 106.684L243.834 92.1501L219.806 105.773L216.633 181.66Z" fill="#67647E"/>
<path opacity="0.1" d="M251.773 84.248C251.773 84.248 237.947 94.4666 222.077 92.1927C206.206 89.9187 197.139 160.319 197.139 160.319C197.139 160.319 191.245 196.652 210.288 193.474L252.457 179.393C252.457 179.393 243.39 169.852 244.751 157.593L224.34 165.764L225.256 126.711L251.773 84.248Z" fill="black"/>
<path opacity="0.1" d="M198.041 159.408C198.041 159.408 192.147 195.741 211.19 192.563L253.359 178.482C253.359 178.482 244.292 168.948 245.653 156.682L225.256 164.86L198.041 159.408Z" fill="black"/>
<path d="M244.652 161.47C244.652 161.47 258.803 142.833 269.223 151.781C279.644 160.728 248.389 177.126 248.389 177.126L244.652 161.47Z" fill="#FAC3CA"/>
<path d="M251.773 83.3369C251.773 83.3369 237.947 93.5555 222.077 91.2815C206.206 89.0076 197.139 159.408 197.139 159.408C197.139 159.408 191.245 195.741 210.288 192.563L252.457 178.482C252.457 178.482 243.39 168.941 244.751 156.682L224.34 164.859L225.256 125.8L248.382 106.733L251.773 83.3369Z" fill="#67647E"/>
<path opacity="0.1" d="M279.659 78.1113L253.812 71.7556C253.812 71.7556 255.158 73.281 253.586 79.2483C257.746 84.0292 262.857 90.3778 269.682 90.3778C274.566 90.387 279.321 88.8085 283.233 85.8794C281.773 83.4225 280.575 80.8189 279.659 78.1113Z" fill="black"/>
<path d="M269.229 89.4739C281.752 89.4739 291.903 79.3058 291.903 66.7628C291.903 54.2198 281.752 44.0518 269.229 44.0518C256.706 44.0518 246.555 54.2198 246.555 66.7628C246.555 79.3058 256.706 89.4739 269.229 89.4739Z" fill="#FAC3CA"/>
<path opacity="0.1" d="M277.825 56.9042C283.085 56.0073 288.867 53.6699 290.629 48.6277C291.757 45.4004 290.897 41.7282 289.057 38.854C287.217 35.9798 284.509 33.7694 281.717 31.7921C277.184 28.6001 272.185 25.8601 266.728 24.8997C265.787 24.6744 264.806 24.6744 263.866 24.8997C263.047 25.2352 262.269 25.6615 261.546 26.1708C257.816 28.3247 253.177 27.3926 248.855 27.1666C244.533 26.9406 239.351 28.1623 237.99 32.2511C237.567 33.5152 237.596 34.8782 237.285 36.1776C236.58 39.3554 234.19 41.8271 232.35 44.4753C230.51 47.1235 229.093 50.7039 230.644 53.5569C231.173 54.5244 232.054 55.4141 232.054 56.5158C231.918 57.2988 231.681 58.0608 231.349 58.7827C230.707 61.1272 232.576 63.493 234.733 64.6087C236.89 65.7245 239.372 66.0705 241.572 67.1086C243.631 68.1263 245.355 69.7148 246.538 71.6853C247.722 73.6558 248.316 75.9254 248.249 78.2241C250.251 78.4571 252.585 78.5772 253.938 77.08C254.545 76.4092 254.841 75.5123 255.391 74.7991C256.096 73.8669 257.196 73.3161 258.098 72.5675C262.843 68.6623 259.473 63.267 262.159 59.0581C263.569 56.8901 265.811 57.5539 268.082 57.5892C271.344 57.6657 274.606 57.4363 277.825 56.9042V56.9042Z" fill="black"/>
<path d="M277.372 56.4523C282.632 55.5555 288.413 53.218 290.176 48.1758C291.304 44.9485 290.444 41.2763 288.604 38.4021C286.764 35.5279 284.056 33.3175 281.264 31.3402C276.731 28.1482 271.732 25.4082 266.275 24.4478C265.334 24.2225 264.353 24.2225 263.412 24.4478C262.594 24.7833 261.816 25.2096 261.093 25.7189C257.363 27.8728 252.724 26.9407 248.402 26.7147C244.08 26.4887 238.898 27.7104 237.537 31.7992C237.114 33.0633 237.142 34.4263 236.832 35.7257C236.127 38.9035 233.737 41.3752 231.897 44.0234C230.057 46.6716 228.64 50.252 230.191 53.105C230.719 54.0725 231.601 54.9622 231.601 56.0639C231.465 56.8469 231.228 57.6089 230.896 58.3308C230.254 60.6753 232.122 63.0411 234.28 64.1568C236.437 65.2726 238.919 65.6186 241.119 66.6567C243.186 67.6734 244.917 69.265 246.105 71.2413C247.293 73.2175 247.887 75.4947 247.817 77.8004C249.819 78.0335 252.153 78.1535 253.507 76.6564C254.113 75.9855 254.409 75.0887 254.959 74.3754C255.664 73.4432 256.764 72.8924 257.666 72.1438C262.411 68.2386 259.041 62.8433 261.727 58.6344C263.137 56.4664 265.38 57.1303 267.65 57.1656C270.906 57.2314 274.161 56.9926 277.372 56.4523Z" fill="#4A4347"/>
<path opacity="0.1" d="M304.82 132.841C304.82 132.841 309.805 158.73 307.542 168.722C306.159 174.535 306.364 180.614 308.134 186.321" fill="black"/>
<path opacity="0.1" d="M224.24 143.737C224.24 143.737 222.069 160.997 225.686 164.626Z" fill="black"/>
<path d="M350.847 356.434C351.127 356.434 351.396 356.323 351.594 356.124C351.793 355.926 351.904 355.656 351.904 355.375C351.904 355.094 351.793 354.825 351.594 354.626C351.396 354.428 351.127 354.316 350.847 354.316C350.566 354.316 350.297 354.428 350.099 354.626C349.9 354.825 349.789 355.094 349.789 355.375C349.789 355.656 349.9 355.926 350.099 356.124C350.297 356.323 350.566 356.434 350.847 356.434Z" fill="black"/>
<g opacity="0.5">
<path opacity="0.5" d="M676.486 233.028V232.442L484.121 84.2834C484 84.1934 483.853 84.1448 483.702 84.1448C483.551 84.1448 483.404 84.1934 483.282 84.2834L290.91 232.442V462.095H291.277V462.462H676.86V232.809L676.486 233.028Z" fill="url(#paint1_linear)"/>
</g>
<path d="M669.847 455.69H297.582V233.946L483.714 90.5896L669.847 233.946V455.69Z" fill="white"/>
<path d="M656.449 442.547H310.977V236.764L483.713 103.725L656.449 236.764V442.547Z" fill="#E0E0E0"/>
<path d="M542.316 100.65L331.578 155.986L401.843 424.447L612.582 369.11L542.316 100.65Z" fill="#2091F9"/>
<path d="M593.699 141.435H375.84V418.968H593.699V141.435Z" fill="#F5F5F5"/>
<path opacity="0.05" d="M299.344 234.299L485.476 345.171L299.344 456.043V234.299Z" fill="black"/>
<path d="M297.934 234.299L484.066 345.171L297.934 456.043V234.299Z" fill="white"/>
<path opacity="0.05" d="M668.789 234.299L482.656 345.171L668.789 456.043V234.299Z" fill="black"/>
<path d="M670.199 234.299L484.066 345.171L670.199 456.043V234.299Z" fill="white"/>
<path opacity="0.05" d="M297.934 452.512L484.066 307.037L670.198 452.512H297.934Z" fill="black"/>
<path d="M297.934 456.042L484.066 310.567L670.198 456.042H297.934Z" fill="white"/>
<path d="M335.758 472.885C335.758 472.885 326.409 441.107 337.514 417.704C342.232 407.921 343.654 396.869 341.568 386.208C340.538 381.155 339.049 376.207 337.119 371.427" stroke="#535461" stroke-width="2" stroke-miterlimit="10"/>
<path d="M344.023 356.639C344.023 360.537 336.972 371.829 336.972 371.829C336.972 371.829 329.922 360.53 329.922 356.639C329.922 354.766 330.665 352.97 331.987 351.646C333.309 350.321 335.102 349.577 336.972 349.577C338.842 349.577 340.636 350.321 341.958 351.646C343.28 352.97 344.023 354.766 344.023 356.639Z" fill="#6C63FF"/>
<path d="M355.692 378.221C353.577 381.49 341.535 387.14 341.535 387.14C341.535 387.14 341.754 373.821 343.869 370.551C344.923 369.073 346.506 368.058 348.289 367.718C350.071 367.379 351.916 367.74 353.439 368.728C354.962 369.716 356.046 371.254 356.465 373.022C356.885 374.79 356.608 376.652 355.692 378.221Z" fill="#6C63FF"/>
<path d="M355.154 415.091C351.678 416.842 338.438 415.634 338.438 415.634C338.438 415.634 345.34 404.251 348.809 402.499C349.639 402.034 350.555 401.742 351.5 401.64C352.446 401.539 353.403 401.63 354.313 401.909C355.222 402.188 356.067 402.648 356.794 403.262C357.522 403.876 358.117 404.631 358.546 405.481C358.974 406.332 359.227 407.261 359.287 408.212C359.348 409.163 359.216 410.116 358.899 411.015C358.582 411.913 358.087 412.738 357.443 413.44C356.8 414.141 356.021 414.705 355.154 415.098V415.091Z" fill="#6C63FF"/>
<path d="M348.499 442.907C345.368 445.224 332.113 446.269 332.113 446.269C332.113 446.269 336.992 433.882 340.123 431.566C341.629 430.56 343.464 430.172 345.248 430.484C347.031 430.796 348.627 431.783 349.704 433.241C350.781 434.699 351.256 436.516 351.032 438.316C350.807 440.115 349.9 441.759 348.499 442.907V442.907Z" fill="#6C63FF"/>
<path d="M326.722 387.888C329.542 390.6 342.508 393.418 342.508 393.418C342.508 393.418 339.328 380.487 336.536 377.776C335.178 376.573 333.41 375.941 331.599 376.01C329.788 376.079 328.073 376.844 326.81 378.146C325.547 379.448 324.833 381.188 324.817 383.003C324.8 384.818 325.483 386.57 326.722 387.895V387.888Z" fill="#6C63FF"/>
<path d="M319.346 420.521C322.822 422.273 336.063 421.065 336.063 421.065C336.063 421.065 329.161 409.681 325.692 407.93C324.035 407.18 322.154 407.1 320.44 407.707C318.726 408.313 317.313 409.559 316.494 411.185C315.675 412.81 315.515 414.689 316.046 416.43C316.578 418.171 317.76 419.639 319.346 420.528V420.521Z" fill="#6C63FF"/>
<path d="M316.524 453.218C319.655 455.534 332.91 456.579 332.91 456.579C332.91 456.579 328.031 444.193 324.9 441.876C324.161 441.271 323.307 440.823 322.39 440.558C321.472 440.293 320.511 440.217 319.564 440.336C318.616 440.454 317.703 440.764 316.879 441.247C316.054 441.73 315.337 442.375 314.769 443.144C314.201 443.912 313.795 444.789 313.576 445.719C313.356 446.65 313.328 447.615 313.492 448.557C313.656 449.499 314.009 450.398 314.531 451.199C315.052 452 315.73 452.687 316.524 453.218V453.218Z" fill="#6C63FF"/>
<path opacity="0.5" d="M475.957 154.147H388.531V161.209H475.957V154.147Z" fill="#6C63FF"/>
<path opacity="0.5" d="M577.484 182.394H388.531V189.456H577.484V182.394Z" fill="#6C63FF"/>
<path opacity="0.5" d="M577.484 200.755H388.531V207.817H577.484V200.755Z" fill="#6C63FF"/>
<path opacity="0.4" d="M577.484 219.116H388.531V226.178H577.484V219.116Z" fill="#6C63FF"/>
<path opacity="0.4" d="M577.484 237.477H388.531V244.539H577.484V237.477Z" fill="#6C63FF"/>
<path opacity="0.3" d="M496.403 255.838H388.531V262.9H496.403V255.838Z" fill="#6C63FF"/>
<path opacity="0.3" d="M535.886 274.199H388.531V281.261H535.886V274.199Z" fill="#6C63FF"/>
</g>
<defs>
<linearGradient id="paint0_linear" x1="193.446" y1="250.421" x2="344.34" y2="250.421" gradientUnits="userSpaceOnUse">
<stop stop-color="#808080" stop-opacity="0.25"/>
<stop offset="0.54" stop-color="#808080" stop-opacity="0.12"/>
<stop offset="1" stop-color="#808080" stop-opacity="0.1"/>
</linearGradient>
<linearGradient id="paint1_linear" x1="246075" y1="280247" x2="246075" y2="77563.5" gradientUnits="userSpaceOnUse">
<stop stop-color="#808080" stop-opacity="0.25"/>
<stop offset="0.54" stop-color="#808080" stop-opacity="0.12"/>
<stop offset="1" stop-color="#808080" stop-opacity="0.1"/>
</linearGradient>
<clipPath id="clip0">
<rect width="677" height="514" fill="white" transform="translate(119.5 0.303223)"/>
</clipPath>
</defs>
</svg>
